<?xml version="1.0" standalone="no"?>
<!DOCTYPE svg PUBLIC "-//W3C//DTD SVG 20010904//EN"
 "http://www.w3.org/TR/2001/REC-SVG-20010904/DTD/svg10.dtd">
<svg version="1.0" xmlns="http://www.w3.org/2000/svg"
 width="512.000000pt" height="512.000000pt" viewBox="0 0 512.000000 512.000000"
 preserveAspectRatio="xMidYMid meet">

<g transform="translate(0.000000,512.000000) scale(0.100000,-0.100000)"
fill="#000000" stroke="none">
<path d="M1096 4364 c-4 -9 -12 -73 -18 -141 -34 -356 108 -843 375 -1286 52
-86 65 -127 40 -127 -8 0 -104 88 -373 339 -80 75 -176 165 -214 201 -39 36
-80 74 -91 85 -12 11 -84 79 -160 150 -75 72 -141 131 -145 133 -22 8 42 -270
89 -383 43 -106 137 -282 204 -382 95 -142 171 -234 291 -353 53 -52 96 -103
96 -114 0 -11 -5 -16 -14 -13 -12 5 -417 266 -741 478 -98 64 -121 76 -124 62
-5 -27 18 -150 45 -237 65 -205 150 -312 414 -521 69 -54 169 -137 223 -183
91 -79 97 -87 97 -122 0 -51 27 -203 47 -265 27 -86 120 -256 190 -350 220
-290 495 -473 840 -559 149 -37 274 -49 446 -43 300 11 560 94 808 258 121 80
331 289 415 414 123 181 194 366 194 506 l0 66 83 75 c45 41 159 136 254 211
242 193 324 291 387 459 44 117 80 317 54 302 -13 -7 -49 -30 -308 -199 -74
-48 -166 -108 -205 -133 -38 -25 -128 -83 -199 -129 -146 -96 -152 -99 -159
-81 -2 8 49 69 123 145 174 179 333 405 420 598 17 39 38 84 45 100 24 52 64
187 79 270 28 151 33 145 -53 63 -42 -40 -137 -129 -211 -198 -74 -69 -175
-163 -225 -210 -456 -430 -473 -446 -488 -431 -9 9 -8 19 7 44 10 18 32 57 48
87 17 30 34 60 38 65 16 21 129 253 165 340 95 231 152 457 171 675 6 75 -11
294 -25 334 -8 19 -9 18 -26 -14 -10 -19 -33 -57 -50 -85 -29 -45 -195 -315
-220 -357 -36 -62 -248 -409 -447 -732 -70 -115 -128 -212 -128 -217 0 -14
-59 -10 -120 6 -109 31 -239 54 -361 66 -107 11 -143 10 -268 -5 -80 -10 -197
-31 -260 -47 -174 -44 -166 -46 -231 63 -30 50 -68 114 -84 142 -16 28 -39 65
-52 83 -13 17 -24 34 -24 37 0 3 -37 65 -83 138 -45 73 -98 159 -117 192 -55
92 -65 108 -148 243 -44 71 -125 205 -182 298 -135 223 -126 210 -134 189z
m789 -2469 c132 -35 243 -126 304 -250 31 -63 35 -80 39 -177 3 -58 1 -123 -2
-143 -7 -34 -9 -36 -34 -30 -52 13 -218 77 -307 119 -123 58 -212 147 -259
260 -34 82 -11 205 43 225 40 15 151 13 216 -4z m1578 6 c31 -12 67 -88 67
-140 0 -104 -136 -280 -263 -340 -74 -35 -325 -131 -343 -131 -26 0 -33 205
-9 283 50 164 203 303 365 330 49 8 159 7 183 -2z"/>
</g>
</svg>
